<svg width="96" height="14" viewBox="0 0 96 14" fill="none" xmlns="http://www.w3.org/2000/svg">
<g clip-path="url(#clip0_101_304)">
<path d="M94.4402 4.68942L90.4453 4.107L88.6598 0.486698C88.3399 -0.158613 87.4129 -0.166816 87.0902 0.486698L85.3047 4.107L81.3098 4.68942C80.5934 4.79333 80.3063 5.67653 80.8258 6.18239L83.716 8.99879L83.0324 12.9773C82.9094 13.6964 83.6668 14.2351 84.3012 13.8988L87.875 12.0203L91.4488 13.8988C92.0832 14.2324 92.8406 13.6964 92.7176 12.9773L92.034 8.99879L94.9242 6.18239C95.4438 5.67653 95.1567 4.79333 94.4402 4.68942ZM90.6258 8.53941L91.2738 12.3238L87.875 10.5382L84.4762 12.3238L85.1242 8.53941L82.3735 5.85973L86.1742 5.30739L87.875 1.86209L89.5758 5.30739L93.3766 5.85973L90.6258 8.53941Z" fill="#EFD444"/>
</g>
<g clip-path="url(#clip1_101_304)">
<path d="M67.0902 0.486698L65.3047 4.107L61.3098 4.68942C60.5934 4.79333 60.3063 5.67653 60.8258 6.18239L63.716 8.99879L63.0324 12.9773C62.9094 13.6964 63.6668 14.2351 64.3012 13.8988L67.875 12.0203L71.4488 13.8988C72.0832 14.2324 72.8406 13.6964 72.7176 12.9773L72.034 8.99879L74.9242 6.18239C75.4438 5.67653 75.1567 4.79333 74.4402 4.68942L70.4453 4.107L68.6598 0.486698C68.3399 -0.158613 67.4129 -0.166816 67.0902 0.486698Z" fill="#EFD444"/>
</g>
<g clip-path="url(#clip2_101_304)">
<path d="M47.0902 0.486698L45.3047 4.107L41.3098 4.68942C40.5934 4.79333 40.3063 5.67653 40.8258 6.18239L43.716 8.99879L43.0324 12.9773C42.9094 13.6964 43.6668 14.2351 44.3012 13.8988L47.875 12.0203L51.4488 13.8988C52.0832 14.2324 52.8406 13.6964 52.7176 12.9773L52.034 8.99879L54.9242 6.18239C55.4438 5.67653 55.1567 4.79333 54.4402 4.68942L50.4453 4.107L48.6598 0.486698C48.3399 -0.158613 47.4129 -0.166816 47.0902 0.486698Z" fill="#EFD444"/>
</g>
<g clip-path="url(#clip3_101_304)">
<path d="M27.0902 0.486698L25.3047 4.107L21.3098 4.68942C20.5934 4.79333 20.3063 5.67653 20.8258 6.18239L23.716 8.99879L23.0324 12.9773C22.9094 13.6964 23.6668 14.2351 24.3012 13.8988L27.875 12.0203L31.4488 13.8988C32.0832 14.2324 32.8406 13.6964 32.7176 12.9773L32.034 8.99879L34.9242 6.18239C35.4438 5.67653 35.1567 4.79333 34.4402 4.68942L30.4453 4.107L28.6598 0.486698C28.3399 -0.158613 27.4129 -0.166816 27.0902 0.486698Z" fill="#EFD444"/>
</g>
<g clip-path="url(#clip4_101_304)">
<path d="M7.09025 0.486698L5.3047 4.107L1.30978 4.68942C0.593372 4.79333 0.306263 5.67653 0.825794 6.18239L3.71603 8.99879L3.03243 12.9773C2.90939 13.6964 3.66681 14.2351 4.30119 13.8988L7.87501 12.0203L11.4488 13.8988C12.0832 14.2324 12.8406 13.6964 12.7176 12.9773L12.034 8.99879L14.9242 6.18239C15.4438 5.67653 15.1567 4.79333 14.4402 4.68942L10.4453 4.107L8.65978 0.486698C8.33986 -0.158613 7.4129 -0.166816 7.09025 0.486698Z" fill="#EFD444"/>
</g>
<defs>
<clipPath id="clip0_101_304">
<rect width="15.75" height="14" fill="white" transform="translate(80)"/>
</clipPath>
<clipPath id="clip1_101_304">
<rect width="15.75" height="14" fill="white" transform="translate(60)"/>
</clipPath>
<clipPath id="clip2_101_304">
<rect width="15.75" height="14" fill="white" transform="translate(40)"/>
</clipPath>
<clipPath id="clip3_101_304">
<rect width="15.75" height="14" fill="white" transform="translate(20)"/>
</clipPath>
<clipPath id="clip4_101_304">
<rect width="15.75" height="14" fill="white"/>
</clipPath>
</defs>
</svg>
